<svg width="540" height="531" viewBox="0 0 540 531" fill="none" xmlns="http://www.w3.org/2000/svg">
<g filter="url(#filter0_d_33_2)">
<path d="M270.027 302.4C271.76 302.4 273.093 303.2 274.027 304.8C275.093 306.4 275.627 308.6 275.627 311.4C275.627 316.6 274.36 320.733 271.827 323.8C264.36 332.733 257.093 339 250.027 342.6C243.093 346.2 234.693 348 224.827 348C217.893 348 211.493 347.133 205.627 345.4C199.76 343.667 192.627 341.067 184.227 337.6C176.627 334.267 169.293 331.533 162.227 329.4C155.427 341.8 145.227 348 131.627 348C124.16 348 118.227 346.333 113.827 343C109.293 339.533 107.027 335.133 107.027 329.8C107.027 323.267 110.16 317.867 116.427 313.6C122.693 309.2 131.027 307 141.427 307H144.027L147.627 248.8C148.427 235.467 150.827 224.467 154.827 215.8C158.827 207.133 164.36 199.733 171.427 193.6C177.56 188.267 184.56 184.267 192.427 181.6C200.293 178.8 208.627 177.4 217.427 177.4C231.827 177.4 242.893 181.133 250.627 188.6C258.36 196.067 262.227 205.8 262.227 217.8C262.227 225.933 260.76 232.533 257.827 237.6C254.893 242.533 250.827 245 245.627 245C241.893 245 238.96 244.133 236.827 242.4C234.693 240.533 233.627 237.933 233.627 234.6C233.627 233.4 233.893 231.2 234.427 228C235.227 224.267 235.627 220.933 235.627 218C235.627 212.4 233.96 208 230.627 204.8C227.427 201.467 222.493 199.8 215.827 199.8C204.093 199.8 195.027 203.667 188.627 211.4C182.227 219 178.16 231 176.427 247.4L171.827 292.8C171.16 299.2 170.293 304.733 169.227 309.4C177.76 310.867 188.427 313.2 201.227 316.4C208.693 318.267 214.427 319.6 218.427 320.4C222.427 321.2 225.96 321.6 229.027 321.6C236.76 321.6 243.36 320.333 248.827 317.8C254.427 315.133 259.693 310.933 264.627 305.2C266.227 303.333 268.027 302.4 270.027 302.4ZM445.997 302.4C447.73 302.4 449.064 303.2 449.997 304.8C451.064 306.4 451.597 308.6 451.597 311.4C451.597 316.6 450.33 320.733 447.797 323.8C441.397 331.533 434.93 337.533 428.397 341.8C421.864 345.933 414.13 348 405.197 348C396.53 348 389.13 345.667 382.997 341C376.997 336.333 371.264 328.333 365.797 317C361.397 307.933 357.93 301.267 355.397 297C352.864 292.6 350.33 289.467 347.797 287.6C345.397 285.733 342.397 284.6 338.797 284.2C338.264 287 336.73 295.8 334.197 310.6C333.13 317.267 332.464 321.333 332.197 322.8C330.864 330.933 328.197 337.2 324.197 341.6C320.197 345.867 314.13 348 305.997 348C297.064 348 289.13 345.4 282.197 340.2C275.397 334.867 270.13 327.533 266.397 318.2C262.664 308.733 260.797 298 260.797 286C260.797 263.6 264.664 244.267 272.397 228C280.264 211.733 291.197 199.333 305.197 190.8C319.33 182.133 335.597 177.8 353.997 177.8C366.797 177.8 377.53 179.733 386.197 183.6C394.864 187.467 401.264 192.8 405.397 199.6C409.664 206.4 411.797 214.067 411.797 222.6C411.797 230.067 409.997 237.4 406.397 244.6C402.93 251.667 397.664 257.933 390.597 263.4C383.53 268.867 374.93 272.933 364.797 275.6C371.197 277.333 376.13 280.133 379.597 284C383.064 287.867 386.53 293.533 389.997 301C393.73 309 397.397 314.867 400.997 318.6C404.73 322.333 408.997 324.2 413.797 324.2C418.064 324.2 422.13 322.8 425.997 320C429.864 317.067 434.73 312.133 440.597 305.2C442.197 303.333 443.997 302.4 445.997 302.4ZM311.197 284C306.664 284 303.53 282.933 301.797 280.8C300.197 278.667 299.397 276.267 299.397 273.6C299.397 270.4 300.397 267.867 302.397 266C304.53 264.133 306.93 263.2 309.597 263.2H314.597C316.73 250.133 318.73 238.867 320.597 229.4C322.33 220.733 327.93 216.4 337.397 216.4C344.997 216.4 348.797 219.8 348.797 226.6C348.797 228.067 348.73 229.2 348.597 230L342.597 263.2C349.797 262.8 356.33 261.067 362.197 258C368.197 254.933 372.93 250.667 376.397 245.2C379.997 239.733 381.797 233.533 381.797 226.6C381.797 218.2 378.93 211.6 373.197 206.8C367.464 202 359.064 199.6 347.997 199.6C334.93 199.6 323.464 202.867 313.597 209.4C303.864 215.8 296.264 225.4 290.797 238.2C285.33 250.867 282.597 266.333 282.597 284.6C282.597 293.133 283.464 300.467 285.197 306.6C286.93 312.733 289.064 317.333 291.597 320.4C294.13 323.467 296.53 325 298.797 325C300.53 325 301.93 324.133 302.997 322.4C304.197 320.667 305.13 317.867 305.797 314L311.197 284Z" fill="#1B1D23"/>
</g>
<g filter="url(#filter1_d_33_2)">
<path d="M270 512C410.639 512 525 400.039 525 261.5C525 122.961 410.639 11 270 11C129.361 11 15 122.961 15 261.5C15 400.039 129.361 512 270 512Z" stroke="#1B1D23" stroke-width="22" shape-rendering="crispEdges"/>
</g>
<defs>
<filter id="filter0_d_33_2" x="103.027" y="177.4" width="352.57" height="178.6" filterUnits="userSpaceOnUse" color-interpolation-filters="sRGB">
<feFlood flood-opacity="0" result="BackgroundImageFix"/>
<feColorMatrix in="SourceAlpha" type="matrix" values="0 0 0 0 0 0 0 0 0 0 0 0 0 0 0 0 0 0 127 0" result="hardAlpha"/>
<feOffset dy="4"/>
<feGaussianBlur stdDeviation="2"/>
<feComposite in2="hardAlpha" operator="out"/>
<feColorMatrix type="matrix" values="0 0 0 0 0 0 0 0 0 0 0 0 0 0 0 0 0 0 0.25 0"/>
<feBlend mode="normal" in2="BackgroundImageFix" result="effect1_dropShadow_33_2"/>
<feBlend mode="normal" in="SourceGraphic" in2="effect1_dropShadow_33_2" result="shape"/>
</filter>
<filter id="filter1_d_33_2" x="0" y="0" width="540" height="531" filterUnits="userSpaceOnUse" color-interpolation-filters="sRGB">
<feFlood flood-opacity="0" result="BackgroundImageFix"/>
<feColorMatrix in="SourceAlpha" type="matrix" values="0 0 0 0 0 0 0 0 0 0 0 0 0 0 0 0 0 0 127 0" result="hardAlpha"/>
<feOffset dy="4"/>
<feGaussianBlur stdDeviation="2"/>
<feComposite in2="hardAlpha" operator="out"/>
<feColorMatrix type="matrix" values="0 0 0 0 0 0 0 0 0 0 0 0 0 0 0 0 0 0 0.25 0"/>
<feBlend mode="normal" in2="BackgroundImageFix" result="effect1_dropShadow_33_2"/>
<feBlend mode="normal" in="SourceGraphic" in2="effect1_dropShadow_33_2" result="shape"/>
</filter>
</defs>
</svg>
